<svg width="38" height="34" viewBox="0 0 38 34" fill="none" xmlns="http://www.w3.org/2000/svg">
<path d="M32.3778 28.9702H26.7474V21.0807C26.7474 19.1994 26.7099 16.7775 23.819 16.7775C20.8865 16.7775 20.4378 18.8273 20.4378 20.9437V28.9696H14.8074V12.7457H20.2126V14.9628H20.2882C21.3904 13.2767 23.4397 12.2697 25.6213 12.3421C31.328 12.3421 32.3801 15.7007 32.3801 20.07L32.3778 28.9702ZM8.45442 10.528C6.64988 10.5283 5.18675 9.21958 5.18643 7.60496C5.18611 5.99034 6.64871 4.6812 8.45324 4.68091C10.2578 4.68062 11.7209 5.98929 11.7212 7.60391C11.7214 8.37928 11.3773 9.12294 10.7646 9.67131C10.152 10.2197 9.32098 10.5278 8.45442 10.528ZM11.2696 28.9702H5.63334V12.7457H11.2696V28.9702ZM35.1848 0.00253523H2.80406C1.27368 -0.0129175 0.0186775 1.08394 0 2.45324V31.5463C0.018038 32.9162 1.27294 34.0142 2.80406 33.9998H35.1848C36.7189 34.0168 37.9788 32.9189 38 31.5463V2.45114C37.9781 1.07913 36.7182 -0.017659 35.1848 0.000215406" fill="#0A66C2"/>
</svg>
