<svg width="33" height="34" viewBox="0 0 33 34" fill="none" xmlns="http://www.w3.org/2000/svg">
<path fill-rule="evenodd" clip-rule="evenodd" d="M8.02703 17C8.02703 12.1787 11.8205 8.27028 16.5 8.27028C21.1795 8.27028 24.973 12.1787 24.973 17C24.973 21.8213 21.1795 25.7297 16.5 25.7297C11.8205 25.7297 8.02703 21.8213 8.02703 17ZM16.5 22.6667C13.4624 22.6667 11 20.1296 11 17C11 13.8704 13.4624 11.3333 16.5 11.3333C19.5376 11.3333 22 13.8704 22 17C22 20.1296 19.5376 22.6667 16.5 22.6667Z" fill="url(#paint0_linear_1_214)"/>
<path fill-rule="evenodd" clip-rule="evenodd" d="M8.02703 17C8.02703 12.1787 11.8205 8.27028 16.5 8.27028C21.1795 8.27028 24.973 12.1787 24.973 17C24.973 21.8213 21.1795 25.7297 16.5 25.7297C11.8205 25.7297 8.02703 21.8213 8.02703 17ZM16.5 22.6667C13.4624 22.6667 11 20.1296 11 17C11 13.8704 13.4624 11.3333 16.5 11.3333C19.5376 11.3333 22 13.8704 22 17C22 20.1296 19.5376 22.6667 16.5 22.6667Z" fill="url(#paint1_radial_1_214)"/>
<path d="M25.3077 9.96535C26.4013 9.96535 27.2878 9.05205 27.2878 7.92538C27.2878 6.7987 26.4013 5.88534 25.3077 5.88534C24.2143 5.88534 23.3278 6.7987 23.3278 7.92538C23.3278 9.05205 24.2143 9.96535 25.3077 9.96535Z" fill="url(#paint2_linear_1_214)"/>
<path d="M25.3077 9.96535C26.4013 9.96535 27.2878 9.05205 27.2878 7.92538C27.2878 6.7987 26.4013 5.88534 25.3077 5.88534C24.2143 5.88534 23.3278 6.7987 23.3278 7.92538C23.3278 9.05205 24.2143 9.96535 25.3077 9.96535Z" fill="url(#paint3_radial_1_214)"/>
<path fill-rule="evenodd" clip-rule="evenodd" d="M16.5 0C12.0189 0 11.457 0.0195697 9.69707 0.102302C7.94084 0.184832 6.74139 0.472236 5.69187 0.892512C4.60685 1.32689 3.68669 1.90818 2.76934 2.85326C1.85205 3.7984 1.28786 4.74645 0.866261 5.86435C0.458347 6.94568 0.179396 8.18147 0.0992932 9.99092C0.0189941 11.8042 0 12.3831 0 17C0 21.6169 0.0189941 22.1958 0.0992932 24.0091C0.179396 25.8185 0.458347 27.0543 0.866261 28.1356C1.28786 29.2535 1.85205 30.2016 2.76934 31.1467C3.68669 32.0918 4.60685 32.6731 5.69187 33.1076C6.74139 33.5278 7.94084 33.8152 9.69707 33.8977C11.457 33.9804 12.0189 34 16.5 34C20.9811 34 21.543 33.9804 23.3029 33.8977C25.0592 33.8152 26.2586 33.5278 27.3081 33.1076C28.3931 32.6731 29.3133 32.0918 30.2307 31.1467C31.1479 30.2016 31.7121 29.2535 32.1338 28.1356C32.5417 27.0543 32.8206 25.8185 32.9007 24.0091C32.981 22.1958 33 21.6169 33 17C33 12.3831 32.981 11.8042 32.9007 9.99092C32.8206 8.18147 32.5417 6.94568 32.1338 5.86435C31.7121 4.74645 31.1479 3.7984 30.2307 2.85326C29.3133 1.90818 28.3931 1.32689 27.3081 0.892512C26.2586 0.472236 25.0592 0.184832 23.3029 0.102302C21.543 0.0195697 20.9811 0 16.5 0ZM16.5 3.06306C20.9057 3.06306 21.4276 3.0804 23.1674 3.16219C24.7762 3.23777 25.6498 3.51471 26.2312 3.74752C27.0014 4.05591 27.5511 4.4243 28.1284 5.01921C28.7058 5.61406 29.0634 6.18037 29.3627 6.97389C29.5887 7.57292 29.8575 8.47306 29.9308 10.1305C30.0102 11.9231 30.027 12.4608 30.027 17C30.027 21.5392 30.0102 22.0769 29.9308 23.8695C29.8575 25.5269 29.5887 26.4271 29.3627 27.0261C29.0634 27.8196 28.7058 28.3859 28.1284 28.9808C27.5511 29.5757 27.0014 29.9441 26.2312 30.2525C25.6498 30.4853 24.7762 30.7622 23.1674 30.8378C21.4278 30.9196 20.906 30.9369 16.5 30.9369C12.094 30.9369 11.5723 30.9196 9.83259 30.8378C8.22385 30.7622 7.35019 30.4853 6.76878 30.2525C5.9986 29.9441 5.44895 29.5757 4.87159 28.9808C4.29424 28.3859 3.93663 27.8196 3.63731 27.0261C3.41134 26.4271 3.14254 25.5269 3.06919 23.8695C2.9898 22.0769 2.97297 21.5392 2.97297 17C2.97297 12.4608 2.9898 11.9231 3.06919 10.1305C3.14254 8.47306 3.41134 7.57292 3.63731 6.97389C3.93663 6.18037 4.29417 5.61406 4.87159 5.01921C5.44895 4.4243 5.9986 4.05591 6.76878 3.74752C7.35019 3.51471 8.22385 3.23777 9.83259 3.16219C11.5724 3.0804 12.0943 3.06306 16.5 3.06306Z" fill="url(#paint4_linear_1_214)"/>
<path fill-rule="evenodd" clip-rule="evenodd" d="M16.5 0C12.0189 0 11.457 0.0195697 9.69707 0.102302C7.94084 0.184832 6.74139 0.472236 5.69187 0.892512C4.60685 1.32689 3.68669 1.90818 2.76934 2.85326C1.85205 3.7984 1.28786 4.74645 0.866261 5.86435C0.458347 6.94568 0.179396 8.18147 0.0992932 9.99092C0.0189941 11.8042 0 12.3831 0 17C0 21.6169 0.0189941 22.1958 0.0992932 24.0091C0.179396 25.8185 0.458347 27.0543 0.866261 28.1356C1.28786 29.2535 1.85205 30.2016 2.76934 31.1467C3.68669 32.0918 4.60685 32.6731 5.69187 33.1076C6.74139 33.5278 7.94084 33.8152 9.69707 33.8977C11.457 33.9804 12.0189 34 16.5 34C20.9811 34 21.543 33.9804 23.3029 33.8977C25.0592 33.8152 26.2586 33.5278 27.3081 33.1076C28.3931 32.6731 29.3133 32.0918 30.2307 31.1467C31.1479 30.2016 31.7121 29.2535 32.1338 28.1356C32.5417 27.0543 32.8206 25.8185 32.9007 24.0091C32.981 22.1958 33 21.6169 33 17C33 12.3831 32.981 11.8042 32.9007 9.99092C32.8206 8.18147 32.5417 6.94568 32.1338 5.86435C31.7121 4.74645 31.1479 3.7984 30.2307 2.85326C29.3133 1.90818 28.3931 1.32689 27.3081 0.892512C26.2586 0.472236 25.0592 0.184832 23.3029 0.102302C21.543 0.0195697 20.9811 0 16.5 0ZM16.5 3.06306C20.9057 3.06306 21.4276 3.0804 23.1674 3.16219C24.7762 3.23777 25.6498 3.51471 26.2312 3.74752C27.0014 4.05591 27.5511 4.4243 28.1284 5.01921C28.7058 5.61406 29.0634 6.18037 29.3627 6.97389C29.5887 7.57292 29.8575 8.47306 29.9308 10.1305C30.0102 11.9231 30.027 12.4608 30.027 17C30.027 21.5392 30.0102 22.0769 29.9308 23.8695C29.8575 25.5269 29.5887 26.4271 29.3627 27.0261C29.0634 27.8196 28.7058 28.3859 28.1284 28.9808C27.5511 29.5757 27.0014 29.9441 26.2312 30.2525C25.6498 30.4853 24.7762 30.7622 23.1674 30.8378C21.4278 30.9196 20.906 30.9369 16.5 30.9369C12.094 30.9369 11.5723 30.9196 9.83259 30.8378C8.22385 30.7622 7.35019 30.4853 6.76878 30.2525C5.9986 29.9441 5.44895 29.5757 4.87159 28.9808C4.29424 28.3859 3.93663 27.8196 3.63731 27.0261C3.41134 26.4271 3.14254 25.5269 3.06919 23.8695C2.9898 22.0769 2.97297 21.5392 2.97297 17C2.97297 12.4608 2.9898 11.9231 3.06919 10.1305C3.14254 8.47306 3.41134 7.57292 3.63731 6.97389C3.93663 6.18037 4.29417 5.61406 4.87159 5.01921C5.44895 4.4243 5.9986 4.05591 6.76878 3.74752C7.35019 3.51471 8.22385 3.23777 9.83259 3.16219C11.5724 3.0804 12.0943 3.06306 16.5 3.06306Z" fill="url(#paint5_radial_1_214)"/>
<defs>
<linearGradient id="paint0_linear_1_214" x1="1.92545" y1="1.78748" x2="12.9278" y2="43.0942" gradientUnits="userSpaceOnUse">
<stop stop-color="#4E60D3"/>
<stop offset="0.142763" stop-color="#913BAF"/>
<stop offset="0.761458" stop-color="#D52D88"/>
<stop offset="1" stop-color="#F26D4F"/>
</linearGradient>
<radialGradient id="paint1_radial_1_214" cx="0" cy="0" r="1" gradientUnits="userSpaceOnUse" gradientTransform="translate(9.99053 34) rotate(32.9358) scale(31.0877 22.6559)">
<stop stop-color="#FED276"/>
<stop offset="0.17024" stop-color="#FDBD61" stop-opacity="0.975006"/>
<stop offset="0.454081" stop-color="#F6804D"/>
<stop offset="1" stop-color="#E83D5C" stop-opacity="0.01"/>
</radialGradient>
<linearGradient id="paint2_linear_1_214" x1="1.92545" y1="1.78748" x2="12.9278" y2="43.0942" gradientUnits="userSpaceOnUse">
<stop stop-color="#4E60D3"/>
<stop offset="0.142763" stop-color="#913BAF"/>
<stop offset="0.761458" stop-color="#D52D88"/>
<stop offset="1" stop-color="#F26D4F"/>
</linearGradient>
<radialGradient id="paint3_radial_1_214" cx="0" cy="0" r="1" gradientUnits="userSpaceOnUse" gradientTransform="translate(9.99053 34) rotate(32.9358) scale(31.0877 22.6559)">
<stop stop-color="#FED276"/>
<stop offset="0.17024" stop-color="#FDBD61" stop-opacity="0.975006"/>
<stop offset="0.454081" stop-color="#F6804D"/>
<stop offset="1" stop-color="#E83D5C" stop-opacity="0.01"/>
</radialGradient>
<linearGradient id="paint4_linear_1_214" x1="1.92545" y1="1.78748" x2="12.9278" y2="43.0942" gradientUnits="userSpaceOnUse">
<stop stop-color="#4E60D3"/>
<stop offset="0.142763" stop-color="#913BAF"/>
<stop offset="0.761458" stop-color="#D52D88"/>
<stop offset="1" stop-color="#F26D4F"/>
</linearGradient>
<radialGradient id="paint5_radial_1_214" cx="0" cy="0" r="1" gradientUnits="userSpaceOnUse" gradientTransform="translate(9.99053 34) rotate(32.9358) scale(31.0877 22.6559)">
<stop stop-color="#FED276"/>
<stop offset="0.17024" stop-color="#FDBD61" stop-opacity="0.975006"/>
<stop offset="0.454081" stop-color="#F6804D"/>
<stop offset="1" stop-color="#E83D5C" stop-opacity="0.01"/>
</radialGradient>
</defs>
</svg>
